<svg xmlns="http://www.w3.org/2000/svg" xmlns:xlink="http://www.w3.org/1999/xlink" width="500" zoomAndPan="magnify" viewBox="0 0 375 374.999991" height="500" preserveAspectRatio="xMidYMid meet" version="1.0"><defs><g/><clipPath id="e0ba739033"><path d="M 37.5 230 L 53 230 L 53 237 L 37.5 237 Z M 37.5 230 " clip-rule="nonzero"/></clipPath><clipPath id="8b803c60de"><path d="M 37.5 240 L 53 240 L 53 248 L 37.5 248 Z M 37.5 240 " clip-rule="nonzero"/></clipPath><clipPath id="5d7136a58e"><path d="M 322 220 L 337.5 220 L 337.5 227 L 322 227 Z M 322 220 " clip-rule="nonzero"/></clipPath><clipPath id="7831c52088"><path d="M 322 230 L 337.5 230 L 337.5 237 L 322 237 Z M 322 230 " clip-rule="nonzero"/></clipPath><clipPath id="ab4bc03513"><path d="M 322 240 L 337.5 240 L 337.5 248 L 322 248 Z M 322 240 " clip-rule="nonzero"/></clipPath></defs><rect x="-37.5" width="450" fill="#ffffff" y="-37.499999" height="449.999989" fill-opacity="1"/><rect x="-37.5" width="450" fill="#ffffff" y="-37.499999" height="449.999989" fill-opacity="1"/><rect x="-37.5" width="450" fill="#000000" y="-37.499999" height="449.999989" fill-opacity="1"/><g fill="#ffffff" fill-opacity="1"><g transform="translate(103.223782, 79.913693)"><g><path d="M 56.375 0 L 51.140625 0 L 51.140625 -11.484375 C 51.140625 -12.671875 50.710938 -13.691406 49.859375 -14.546875 C 49.015625 -15.398438 47.992188 -15.828125 46.796875 -15.828125 L 11.09375 -15.828125 L 11.09375 0 L 5.875 0 L 5.875 -42.09375 L 46.796875 -42.09375 C 49.441406 -42.09375 51.695312 -41.15625 53.5625 -39.28125 C 55.4375 -37.414062 56.375 -35.164062 56.375 -32.53125 L 56.375 -25.390625 C 56.375 -22.648438 55.375 -20.332031 53.375 -18.4375 C 55.375 -16.539062 56.375 -14.222656 56.375 -11.484375 Z M 46.796875 -21.046875 C 47.992188 -21.046875 49.015625 -21.472656 49.859375 -22.328125 C 50.710938 -23.179688 51.140625 -24.203125 51.140625 -25.390625 L 51.140625 -32.53125 C 51.140625 -33.71875 50.710938 -34.738281 49.859375 -35.59375 C 49.015625 -36.445312 47.992188 -36.875 46.796875 -36.875 L 11.09375 -36.875 L 11.09375 -21.046875 Z M 46.796875 -21.046875 "/></g></g><g transform="translate(163.998552, 79.913693)"><g><path d="M 26.828125 0 L 21.609375 0 L 21.609375 -36.875 L 0.875 -36.875 L 0.875 -42.09375 L 47.5625 -42.09375 L 47.5625 -36.875 L 26.828125 -36.875 Z M 26.828125 0 "/></g></g><g transform="translate(212.442209, 79.913693)"><g><path d="M 45.328125 0 L 13.96875 0 C 11.332031 0 9.078125 -0.929688 7.203125 -2.796875 C 5.335938 -4.671875 4.40625 -6.929688 4.40625 -9.578125 L 9.625 -9.578125 C 9.625 -8.378906 10.050781 -7.351562 10.90625 -6.5 C 11.757812 -5.644531 12.78125 -5.21875 13.96875 -5.21875 L 45.328125 -5.21875 C 46.523438 -5.21875 47.546875 -5.644531 48.390625 -6.5 C 49.242188 -7.351562 49.671875 -8.378906 49.671875 -9.578125 L 49.671875 -14.09375 C 49.671875 -15.28125 49.242188 -16.300781 48.390625 -17.15625 C 47.546875 -18.007812 46.523438 -18.4375 45.328125 -18.4375 L 13.96875 -18.4375 C 11.332031 -18.4375 9.078125 -19.367188 7.203125 -21.234375 C 5.335938 -23.109375 4.40625 -25.363281 4.40625 -28 L 4.40625 -32.53125 C 4.40625 -35.164062 5.335938 -37.414062 7.203125 -39.28125 C 9.078125 -41.15625 11.332031 -42.09375 13.96875 -42.09375 L 45.328125 -42.09375 C 47.972656 -42.09375 50.226562 -41.15625 52.09375 -39.28125 C 53.96875 -37.414062 54.90625 -35.164062 54.90625 -32.53125 L 49.671875 -32.53125 C 49.671875 -33.71875 49.242188 -34.738281 48.390625 -35.59375 C 47.546875 -36.445312 46.523438 -36.875 45.328125 -36.875 L 13.96875 -36.875 C 12.78125 -36.875 11.757812 -36.445312 10.90625 -35.59375 C 10.050781 -34.738281 9.625 -33.71875 9.625 -32.53125 L 9.625 -28 C 9.625 -26.8125 10.050781 -25.789062 10.90625 -24.9375 C 11.757812 -24.082031 12.78125 -23.65625 13.96875 -23.65625 L 45.328125 -23.65625 C 47.972656 -23.65625 50.226562 -22.722656 52.09375 -20.859375 C 53.96875 -18.992188 54.90625 -16.738281 54.90625 -14.09375 L 54.90625 -9.578125 C 54.90625 -6.929688 53.96875 -4.671875 52.09375 -2.796875 C 50.226562 -0.929688 47.972656 0 45.328125 0 Z M 45.328125 0 "/></g></g></g><g fill="#ffffff" fill-opacity="1"><g transform="translate(84.016587, 292.001821)"><g><path d="M 8.359375 0 L 6.359375 -3.3125 C 6.253906 -3.300781 6.085938 -3.296875 5.859375 -3.296875 L 3.28125 -3.296875 L 3.28125 0 L 1.4375 0 L 1.4375 -10.921875 L 5.859375 -10.921875 C 7.253906 -10.921875 8.335938 -10.59375 9.109375 -9.9375 C 9.878906 -9.289062 10.265625 -8.375 10.265625 -7.1875 C 10.265625 -6.3125 10.066406 -5.570312 9.671875 -4.96875 C 9.285156 -4.363281 8.726562 -3.925781 8 -3.65625 L 10.453125 0 Z M 3.28125 -4.9375 L 5.859375 -4.9375 C 7.628906 -4.9375 8.515625 -5.671875 8.515625 -7.140625 C 8.515625 -8.554688 7.628906 -9.265625 5.859375 -9.265625 L 3.28125 -9.265625 Z M 3.28125 -4.9375 "/></g></g></g><g fill="#ffffff" fill-opacity="1"><g transform="translate(98.522894, 292.001821)"><g><path d="M 9.234375 -9.265625 L 3.28125 -9.265625 L 3.28125 -6.3125 L 8.609375 -6.3125 L 8.609375 -4.65625 L 3.28125 -4.65625 L 3.28125 -1.65625 L 9.421875 -1.65625 L 9.421875 0 L 1.4375 0 L 1.4375 -10.921875 L 9.234375 -10.921875 Z M 9.234375 -9.265625 "/></g></g></g><g fill="#ffffff" fill-opacity="1"><g transform="translate(111.985494, 292.001821)"><g><path d="M 5.015625 -11 C 6.429688 -11 7.707031 -10.625 8.84375 -9.875 L 8.078125 -8.25 C 6.960938 -8.925781 5.894531 -9.265625 4.875 -9.265625 C 4.320312 -9.265625 3.890625 -9.164062 3.578125 -8.96875 C 3.265625 -8.769531 3.109375 -8.488281 3.109375 -8.125 C 3.109375 -7.757812 3.25 -7.445312 3.53125 -7.1875 C 3.820312 -6.9375 4.1875 -6.75 4.625 -6.625 C 5.0625 -6.507812 5.535156 -6.359375 6.046875 -6.171875 C 6.554688 -5.992188 7.03125 -5.800781 7.46875 -5.59375 C 7.90625 -5.394531 8.265625 -5.078125 8.546875 -4.640625 C 8.835938 -4.210938 8.984375 -3.695312 8.984375 -3.09375 C 8.984375 -2.132812 8.597656 -1.367188 7.828125 -0.796875 C 7.066406 -0.222656 6.078125 0.0625 4.859375 0.0625 C 4.035156 0.0625 3.234375 -0.09375 2.453125 -0.40625 C 1.671875 -0.71875 0.988281 -1.140625 0.40625 -1.671875 L 1.203125 -3.265625 C 1.753906 -2.753906 2.359375 -2.359375 3.015625 -2.078125 C 3.671875 -1.804688 4.296875 -1.671875 4.890625 -1.671875 C 5.535156 -1.671875 6.035156 -1.785156 6.390625 -2.015625 C 6.753906 -2.253906 6.9375 -2.582031 6.9375 -3 C 6.9375 -3.375 6.789062 -3.6875 6.5 -3.9375 C 6.207031 -4.1875 5.84375 -4.367188 5.40625 -4.484375 C 4.96875 -4.609375 4.492188 -4.753906 3.984375 -4.921875 C 3.484375 -5.097656 3.015625 -5.28125 2.578125 -5.46875 C 2.140625 -5.664062 1.773438 -5.976562 1.484375 -6.40625 C 1.191406 -6.832031 1.046875 -7.347656 1.046875 -7.953125 C 1.046875 -8.878906 1.410156 -9.617188 2.140625 -10.171875 C 2.867188 -10.722656 3.828125 -11 5.015625 -11 Z M 5.015625 -11 "/></g></g></g><g fill="#ffffff" fill-opacity="1"><g transform="translate(124.918446, 292.001821)"><g><path d="M 9.234375 -9.265625 L 3.28125 -9.265625 L 3.28125 -6.3125 L 8.609375 -6.3125 L 8.609375 -4.65625 L 3.28125 -4.65625 L 3.28125 -1.65625 L 9.421875 -1.65625 L 9.421875 0 L 1.4375 0 L 1.4375 -10.921875 L 9.234375 -10.921875 Z M 9.234375 -9.265625 "/></g></g></g><g fill="#ffffff" fill-opacity="1"><g transform="translate(138.381048, 292.001821)"><g><path d="M 8.359375 0 L 6.359375 -3.3125 C 6.253906 -3.300781 6.085938 -3.296875 5.859375 -3.296875 L 3.28125 -3.296875 L 3.28125 0 L 1.4375 0 L 1.4375 -10.921875 L 5.859375 -10.921875 C 7.253906 -10.921875 8.335938 -10.59375 9.109375 -9.9375 C 9.878906 -9.289062 10.265625 -8.375 10.265625 -7.1875 C 10.265625 -6.3125 10.066406 -5.570312 9.671875 -4.96875 C 9.285156 -4.363281 8.726562 -3.925781 8 -3.65625 L 10.453125 0 Z M 3.28125 -4.9375 L 5.859375 -4.9375 C 7.628906 -4.9375 8.515625 -5.671875 8.515625 -7.140625 C 8.515625 -8.554688 7.628906 -9.265625 5.859375 -9.265625 L 3.28125 -9.265625 Z M 3.28125 -4.9375 "/></g></g></g><g fill="#ffffff" fill-opacity="1"><g transform="translate(152.887358, 292.001821)"><g><path d="M 6.296875 0 L 4.390625 0 L 0.046875 -10.921875 L 2.03125 -10.921875 L 5.390625 -2.046875 L 8.796875 -10.921875 L 10.71875 -10.921875 Z M 6.296875 0 "/></g></g></g><g fill="#ffffff" fill-opacity="1"><g transform="translate(166.879588, 292.001821)"><g><path d="M 9.234375 -9.265625 L 3.28125 -9.265625 L 3.28125 -6.3125 L 8.609375 -6.3125 L 8.609375 -4.65625 L 3.28125 -4.65625 L 3.28125 -1.65625 L 9.421875 -1.65625 L 9.421875 0 L 1.4375 0 L 1.4375 -10.921875 L 9.234375 -10.921875 Z M 9.234375 -9.265625 "/></g></g></g><g fill="#ffffff" fill-opacity="1"><g transform="translate(187.604869, 292.001821)"><g><path d="M 8.890625 -9.265625 L 5.421875 -9.265625 L 5.421875 0 L 3.59375 0 L 3.59375 -9.265625 L 0.140625 -9.265625 L 0.140625 -10.921875 L 8.890625 -10.921875 Z M 8.890625 -9.265625 "/></g></g></g><g fill="#ffffff" fill-opacity="1"><g transform="translate(199.867988, 292.001821)"><g><path d="M 2.203125 -9.375 C 3.316406 -10.4375 4.6875 -10.96875 6.3125 -10.96875 C 7.945312 -10.96875 9.316406 -10.4375 10.421875 -9.375 C 11.535156 -8.320312 12.09375 -7.015625 12.09375 -5.453125 C 12.09375 -3.898438 11.535156 -2.585938 10.421875 -1.515625 C 9.316406 -0.453125 7.945312 0.078125 6.3125 0.078125 C 4.6875 0.078125 3.316406 -0.453125 2.203125 -1.515625 C 1.085938 -2.585938 0.53125 -3.898438 0.53125 -5.453125 C 0.53125 -7.015625 1.085938 -8.320312 2.203125 -9.375 Z M 6.328125 -9.3125 C 5.242188 -9.3125 4.316406 -8.9375 3.546875 -8.1875 C 2.785156 -7.445312 2.40625 -6.535156 2.40625 -5.453125 C 2.40625 -4.378906 2.789062 -3.460938 3.5625 -2.703125 C 4.332031 -1.953125 5.253906 -1.578125 6.328125 -1.578125 C 7.398438 -1.578125 8.316406 -1.953125 9.078125 -2.703125 C 9.835938 -3.460938 10.21875 -4.378906 10.21875 -5.453125 C 10.21875 -6.535156 9.835938 -7.445312 9.078125 -8.1875 C 8.316406 -8.9375 7.398438 -9.3125 6.328125 -9.3125 Z M 6.328125 -9.3125 "/></g></g></g><g fill="#ffffff" fill-opacity="1"><g transform="translate(215.729556, 292.001821)"><g><path d="M 10.90625 0 L 9.09375 0 L 3.28125 -7.828125 L 3.28125 0 L 1.4375 0 L 1.4375 -10.921875 L 3.25 -10.921875 L 9.09375 -3.078125 L 9.09375 -10.921875 L 10.90625 -10.921875 Z M 10.90625 0 "/></g></g></g><g fill="#ffffff" fill-opacity="1"><g transform="translate(238.573393, 292.001821)"><g><path d="M 5.015625 -11 C 6.429688 -11 7.707031 -10.625 8.84375 -9.875 L 8.078125 -8.25 C 6.960938 -8.925781 5.894531 -9.265625 4.875 -9.265625 C 4.320312 -9.265625 3.890625 -9.164062 3.578125 -8.96875 C 3.265625 -8.769531 3.109375 -8.488281 3.109375 -8.125 C 3.109375 -7.757812 3.25 -7.445312 3.53125 -7.1875 C 3.820312 -6.9375 4.1875 -6.75 4.625 -6.625 C 5.0625 -6.507812 5.535156 -6.359375 6.046875 -6.171875 C 6.554688 -5.992188 7.03125 -5.800781 7.46875 -5.59375 C 7.90625 -5.394531 8.265625 -5.078125 8.546875 -4.640625 C 8.835938 -4.210938 8.984375 -3.695312 8.984375 -3.09375 C 8.984375 -2.132812 8.597656 -1.367188 7.828125 -0.796875 C 7.066406 -0.222656 6.078125 0.0625 4.859375 0.0625 C 4.035156 0.0625 3.234375 -0.09375 2.453125 -0.40625 C 1.671875 -0.71875 0.988281 -1.140625 0.40625 -1.671875 L 1.203125 -3.265625 C 1.753906 -2.753906 2.359375 -2.359375 3.015625 -2.078125 C 3.671875 -1.804688 4.296875 -1.671875 4.890625 -1.671875 C 5.535156 -1.671875 6.035156 -1.785156 6.390625 -2.015625 C 6.753906 -2.253906 6.9375 -2.582031 6.9375 -3 C 6.9375 -3.375 6.789062 -3.6875 6.5 -3.9375 C 6.207031 -4.1875 5.84375 -4.367188 5.40625 -4.484375 C 4.96875 -4.609375 4.492188 -4.753906 3.984375 -4.921875 C 3.484375 -5.097656 3.015625 -5.28125 2.578125 -5.46875 C 2.140625 -5.664062 1.773438 -5.976562 1.484375 -6.40625 C 1.191406 -6.832031 1.046875 -7.347656 1.046875 -7.953125 C 1.046875 -8.878906 1.410156 -9.617188 2.140625 -10.171875 C 2.867188 -10.722656 3.828125 -11 5.015625 -11 Z M 5.015625 -11 "/></g></g></g><g fill="#ffffff" fill-opacity="1"><g transform="translate(251.506341, 292.001821)"><g><path d="M 8.890625 -9.265625 L 5.421875 -9.265625 L 5.421875 0 L 3.59375 0 L 3.59375 -9.265625 L 0.140625 -9.265625 L 0.140625 -10.921875 L 8.890625 -10.921875 Z M 8.890625 -9.265625 "/></g></g></g><g fill="#ffffff" fill-opacity="1"><g transform="translate(263.769452, 292.001821)"><g><path d="M 10.71875 -10.921875 L 10.71875 -4.515625 C 10.71875 -3.097656 10.296875 -1.976562 9.453125 -1.15625 C 8.609375 -0.332031 7.445312 0.078125 5.96875 0.078125 C 4.5 0.078125 3.335938 -0.332031 2.484375 -1.15625 C 1.640625 -1.976562 1.21875 -3.097656 1.21875 -4.515625 L 1.21875 -10.921875 L 3.0625 -10.921875 L 3.0625 -4.515625 C 3.0625 -3.609375 3.320312 -2.890625 3.84375 -2.359375 C 4.363281 -1.835938 5.078125 -1.578125 5.984375 -1.578125 C 6.878906 -1.578125 7.582031 -1.835938 8.09375 -2.359375 C 8.613281 -2.878906 8.875 -3.597656 8.875 -4.515625 L 8.875 -10.921875 Z M 10.71875 -10.921875 "/></g></g></g><g fill="#ffffff" fill-opacity="1"><g transform="translate(278.914437, 292.001821)"><g><path d="M 1.4375 -10.921875 L 5.90625 -10.921875 C 7.539062 -10.921875 8.890625 -10.40625 9.953125 -9.375 C 11.023438 -8.34375 11.5625 -7.035156 11.5625 -5.453125 C 11.5625 -3.878906 11.023438 -2.578125 9.953125 -1.546875 C 8.878906 -0.515625 7.515625 0 5.859375 0 L 1.4375 0 Z M 3.28125 -9.265625 L 3.28125 -1.65625 L 5.953125 -1.65625 C 7.023438 -1.65625 7.914062 -2.007812 8.625 -2.71875 C 9.34375 -3.4375 9.703125 -4.34375 9.703125 -5.4375 C 9.703125 -6.539062 9.332031 -7.453125 8.59375 -8.171875 C 7.863281 -8.898438 6.957031 -9.265625 5.875 -9.265625 Z M 3.28125 -9.265625 "/></g></g></g><g clip-path="url(#e0ba739033)"><path fill="#00c2cb" d="M 37.710938 230.21875 L 52.683594 230.21875 L 52.683594 236.964844 L 37.710938 236.964844 Z M 37.710938 230.21875 " fill-opacity="1" fill-rule="nonzero"/></g><g clip-path="url(#8b803c60de)"><path fill="#00c2cb" d="M 37.710938 240.441406 L 52.683594 240.441406 L 52.683594 247.1875 L 37.710938 247.1875 Z M 37.710938 240.441406 " fill-opacity="1" fill-rule="nonzero"/></g><path fill="#00c2cb" d="M 56.730469 209.824219 L 71.703125 209.824219 L 71.703125 216.566406 L 56.730469 216.566406 Z M 56.730469 209.824219 " fill-opacity="1" fill-rule="nonzero"/><path fill="#00c2cb" d="M 56.730469 220.046875 L 71.703125 220.046875 L 71.703125 226.792969 L 56.730469 226.792969 Z M 56.730469 220.046875 " fill-opacity="1" fill-rule="nonzero"/><path fill="#00c2cb" d="M 56.730469 230.21875 L 71.703125 230.21875 L 71.703125 236.964844 L 56.730469 236.964844 Z M 56.730469 230.21875 " fill-opacity="1" fill-rule="nonzero"/><path fill="#00c2cb" d="M 56.730469 240.441406 L 71.703125 240.441406 L 71.703125 247.1875 L 56.730469 247.1875 Z M 56.730469 240.441406 " fill-opacity="1" fill-rule="nonzero"/><path fill="#00c2cb" d="M 75.75 179.203125 L 90.722656 179.203125 L 90.722656 185.949219 L 75.75 185.949219 Z M 75.75 179.203125 " fill-opacity="1" fill-rule="nonzero"/><path fill="#00c2cb" d="M 75.75 189.425781 L 90.722656 189.425781 L 90.722656 196.171875 L 75.75 196.171875 Z M 75.75 189.425781 " fill-opacity="1" fill-rule="nonzero"/><path fill="#00c2cb" d="M 75.75 199.597656 L 90.722656 199.597656 L 90.722656 206.34375 L 75.75 206.34375 Z M 75.75 199.597656 " fill-opacity="1" fill-rule="nonzero"/><path fill="#00c2cb" d="M 75.75 209.824219 L 90.722656 209.824219 L 90.722656 216.566406 L 75.75 216.566406 Z M 75.75 209.824219 " fill-opacity="1" fill-rule="nonzero"/><path fill="#00c2cb" d="M 75.75 220.046875 L 90.722656 220.046875 L 90.722656 226.792969 L 75.75 226.792969 Z M 75.75 220.046875 " fill-opacity="1" fill-rule="nonzero"/><path fill="#00c2cb" d="M 75.75 230.21875 L 90.722656 230.21875 L 90.722656 236.964844 L 75.75 236.964844 Z M 75.75 230.21875 " fill-opacity="1" fill-rule="nonzero"/><path fill="#00c2cb" d="M 75.75 240.441406 L 90.722656 240.441406 L 90.722656 247.1875 L 75.75 247.1875 Z M 75.75 240.441406 " fill-opacity="1" fill-rule="nonzero"/><path fill="#00c2cb" d="M 94.714844 148.582031 L 109.6875 148.582031 L 109.6875 155.328125 L 94.714844 155.328125 Z M 94.714844 148.582031 " fill-opacity="1" fill-rule="nonzero"/><path fill="#00c2cb" d="M 94.714844 158.808594 L 109.6875 158.808594 L 109.6875 165.550781 L 94.714844 165.550781 Z M 94.714844 158.808594 " fill-opacity="1" fill-rule="nonzero"/><path fill="#00c2cb" d="M 94.714844 169.03125 L 109.6875 169.03125 L 109.6875 175.777344 L 94.714844 175.777344 Z M 94.714844 169.03125 " fill-opacity="1" fill-rule="nonzero"/><path fill="#00c2cb" d="M 94.714844 179.203125 L 109.6875 179.203125 L 109.6875 185.949219 L 94.714844 185.949219 Z M 94.714844 179.203125 " fill-opacity="1" fill-rule="nonzero"/><path fill="#00c2cb" d="M 94.714844 189.425781 L 109.6875 189.425781 L 109.6875 196.171875 L 94.714844 196.171875 Z M 94.714844 189.425781 " fill-opacity="1" fill-rule="nonzero"/><path fill="#00c2cb" d="M 94.714844 199.597656 L 109.6875 199.597656 L 109.6875 206.34375 L 94.714844 206.34375 Z M 94.714844 199.597656 " fill-opacity="1" fill-rule="nonzero"/><path fill="#00c2cb" d="M 94.714844 209.824219 L 109.6875 209.824219 L 109.6875 216.566406 L 94.714844 216.566406 Z M 94.714844 209.824219 " fill-opacity="1" fill-rule="nonzero"/><path fill="#00c2cb" d="M 94.714844 220.046875 L 109.6875 220.046875 L 109.6875 226.792969 L 94.714844 226.792969 Z M 94.714844 220.046875 " fill-opacity="1" fill-rule="nonzero"/><path fill="#00c2cb" d="M 94.714844 230.21875 L 109.6875 230.21875 L 109.6875 236.964844 L 94.714844 236.964844 Z M 94.714844 230.21875 " fill-opacity="1" fill-rule="nonzero"/><path fill="#00c2cb" d="M 94.714844 240.441406 L 109.6875 240.441406 L 109.6875 247.1875 L 94.714844 247.1875 Z M 94.714844 240.441406 " fill-opacity="1" fill-rule="nonzero"/><path fill="#00c2cb" d="M 113.734375 220.046875 L 128.707031 220.046875 L 128.707031 226.792969 L 113.734375 226.792969 Z M 113.734375 220.046875 " fill-opacity="1" fill-rule="nonzero"/><path fill="#00c2cb" d="M 113.734375 230.21875 L 128.707031 230.21875 L 128.707031 236.964844 L 113.734375 236.964844 Z M 113.734375 230.21875 " fill-opacity="1" fill-rule="nonzero"/><path fill="#00c2cb" d="M 113.734375 240.441406 L 128.707031 240.441406 L 128.707031 247.1875 L 113.734375 247.1875 Z M 113.734375 240.441406 " fill-opacity="1" fill-rule="nonzero"/><path fill="#00c2cb" d="M 132.753906 169.03125 L 147.726562 169.03125 L 147.726562 175.777344 L 132.753906 175.777344 Z M 132.753906 169.03125 " fill-opacity="1" fill-rule="nonzero"/><path fill="#00c2cb" d="M 132.753906 179.203125 L 147.726562 179.203125 L 147.726562 185.949219 L 132.753906 185.949219 Z M 132.753906 179.203125 " fill-opacity="1" fill-rule="nonzero"/><path fill="#00c2cb" d="M 132.753906 189.425781 L 147.726562 189.425781 L 147.726562 196.171875 L 132.753906 196.171875 Z M 132.753906 189.425781 " fill-opacity="1" fill-rule="nonzero"/><path fill="#00c2cb" d="M 132.753906 199.597656 L 147.726562 199.597656 L 147.726562 206.34375 L 132.753906 206.34375 Z M 132.753906 199.597656 " fill-opacity="1" fill-rule="nonzero"/><path fill="#00c2cb" d="M 132.753906 209.824219 L 147.726562 209.824219 L 147.726562 216.566406 L 132.753906 216.566406 Z M 132.753906 209.824219 " fill-opacity="1" fill-rule="nonzero"/><path fill="#00c2cb" d="M 132.753906 220.046875 L 147.726562 220.046875 L 147.726562 226.792969 L 132.753906 226.792969 Z M 132.753906 220.046875 " fill-opacity="1" fill-rule="nonzero"/><path fill="#00c2cb" d="M 132.753906 230.21875 L 147.726562 230.21875 L 147.726562 236.964844 L 132.753906 236.964844 Z M 132.753906 230.21875 " fill-opacity="1" fill-rule="nonzero"/><path fill="#00c2cb" d="M 132.753906 240.441406 L 147.726562 240.441406 L 147.726562 247.1875 L 132.753906 247.1875 Z M 132.753906 240.441406 " fill-opacity="1" fill-rule="nonzero"/><path fill="#00c2cb" d="M 151.773438 138.410156 L 166.746094 138.410156 L 166.746094 145.15625 L 151.773438 145.15625 Z M 151.773438 138.410156 " fill-opacity="1" fill-rule="nonzero"/><path fill="#00c2cb" d="M 151.773438 148.582031 L 166.746094 148.582031 L 166.746094 155.328125 L 151.773438 155.328125 Z M 151.773438 148.582031 " fill-opacity="1" fill-rule="nonzero"/><path fill="#00c2cb" d="M 151.773438 158.808594 L 166.746094 158.808594 L 166.746094 165.550781 L 151.773438 165.550781 Z M 151.773438 158.808594 " fill-opacity="1" fill-rule="nonzero"/><path fill="#00c2cb" d="M 151.773438 169.03125 L 166.746094 169.03125 L 166.746094 175.777344 L 151.773438 175.777344 Z M 151.773438 169.03125 " fill-opacity="1" fill-rule="nonzero"/><path fill="#00c2cb" d="M 151.773438 179.203125 L 166.746094 179.203125 L 166.746094 185.949219 L 151.773438 185.949219 Z M 151.773438 179.203125 " fill-opacity="1" fill-rule="nonzero"/><path fill="#00c2cb" d="M 151.773438 189.425781 L 166.746094 189.425781 L 166.746094 196.171875 L 151.773438 196.171875 Z M 151.773438 189.425781 " fill-opacity="1" fill-rule="nonzero"/><path fill="#00c2cb" d="M 151.773438 199.597656 L 166.746094 199.597656 L 166.746094 206.34375 L 151.773438 206.34375 Z M 151.773438 199.597656 " fill-opacity="1" fill-rule="nonzero"/><path fill="#00c2cb" d="M 151.773438 209.824219 L 166.746094 209.824219 L 166.746094 216.566406 L 151.773438 216.566406 Z M 151.773438 209.824219 " fill-opacity="1" fill-rule="nonzero"/><path fill="#00c2cb" d="M 151.773438 220.046875 L 166.746094 220.046875 L 166.746094 226.792969 L 151.773438 226.792969 Z M 151.773438 220.046875 " fill-opacity="1" fill-rule="nonzero"/><path fill="#00c2cb" d="M 151.773438 230.21875 L 166.746094 230.21875 L 166.746094 236.964844 L 151.773438 236.964844 Z M 151.773438 230.21875 " fill-opacity="1" fill-rule="nonzero"/><path fill="#00c2cb" d="M 151.773438 240.441406 L 166.746094 240.441406 L 166.746094 247.1875 L 151.773438 247.1875 Z M 151.773438 240.441406 " fill-opacity="1" fill-rule="nonzero"/><path fill="#00c2cb" d="M 170.738281 209.824219 L 185.714844 209.824219 L 185.714844 216.566406 L 170.738281 216.566406 Z M 170.738281 209.824219 " fill-opacity="1" fill-rule="nonzero"/><path fill="#00c2cb" d="M 170.738281 220.046875 L 185.714844 220.046875 L 185.714844 226.792969 L 170.738281 226.792969 Z M 170.738281 220.046875 " fill-opacity="1" fill-rule="nonzero"/><path fill="#00c2cb" d="M 170.738281 230.21875 L 185.714844 230.21875 L 185.714844 236.964844 L 170.738281 236.964844 Z M 170.738281 230.21875 " fill-opacity="1" fill-rule="nonzero"/><path fill="#00c2cb" d="M 170.738281 240.441406 L 185.714844 240.441406 L 185.714844 247.1875 L 170.738281 247.1875 Z M 170.738281 240.441406 " fill-opacity="1" fill-rule="nonzero"/><path fill="#00c2cb" d="M 189.757812 128.1875 L 204.734375 128.1875 L 204.734375 134.933594 L 189.757812 134.933594 Z M 189.757812 128.1875 " fill-opacity="1" fill-rule="nonzero"/><path fill="#00c2cb" d="M 189.757812 138.410156 L 204.734375 138.410156 L 204.734375 145.15625 L 189.757812 145.15625 Z M 189.757812 138.410156 " fill-opacity="1" fill-rule="nonzero"/><path fill="#00c2cb" d="M 189.757812 148.582031 L 204.734375 148.582031 L 204.734375 155.328125 L 189.757812 155.328125 Z M 189.757812 148.582031 " fill-opacity="1" fill-rule="nonzero"/><path fill="#00c2cb" d="M 189.757812 158.808594 L 204.734375 158.808594 L 204.734375 165.550781 L 189.757812 165.550781 Z M 189.757812 158.808594 " fill-opacity="1" fill-rule="nonzero"/><path fill="#00c2cb" d="M 189.757812 169.03125 L 204.734375 169.03125 L 204.734375 175.777344 L 189.757812 175.777344 Z M 189.757812 169.03125 " fill-opacity="1" fill-rule="nonzero"/><path fill="#00c2cb" d="M 189.757812 179.203125 L 204.734375 179.203125 L 204.734375 185.949219 L 189.757812 185.949219 Z M 189.757812 179.203125 " fill-opacity="1" fill-rule="nonzero"/><path fill="#00c2cb" d="M 189.757812 189.425781 L 204.734375 189.425781 L 204.734375 196.171875 L 189.757812 196.171875 Z M 189.757812 189.425781 " fill-opacity="1" fill-rule="nonzero"/><path fill="#00c2cb" d="M 189.757812 199.597656 L 204.734375 199.597656 L 204.734375 206.34375 L 189.757812 206.34375 Z M 189.757812 199.597656 " fill-opacity="1" fill-rule="nonzero"/><path fill="#00c2cb" d="M 189.757812 209.824219 L 204.734375 209.824219 L 204.734375 216.566406 L 189.757812 216.566406 Z M 189.757812 209.824219 " fill-opacity="1" fill-rule="nonzero"/><path fill="#00c2cb" d="M 189.757812 220.046875 L 204.734375 220.046875 L 204.734375 226.792969 L 189.757812 226.792969 Z M 189.757812 220.046875 " fill-opacity="1" fill-rule="nonzero"/><path fill="#00c2cb" d="M 189.757812 230.21875 L 204.734375 230.21875 L 204.734375 236.964844 L 189.757812 236.964844 Z M 189.757812 230.21875 " fill-opacity="1" fill-rule="nonzero"/><path fill="#00c2cb" d="M 189.757812 240.441406 L 204.734375 240.441406 L 204.734375 247.1875 L 189.757812 247.1875 Z M 189.757812 240.441406 " fill-opacity="1" fill-rule="nonzero"/><path fill="#00c2cb" d="M 208.777344 189.425781 L 223.753906 189.425781 L 223.753906 196.171875 L 208.777344 196.171875 Z M 208.777344 189.425781 " fill-opacity="1" fill-rule="nonzero"/><path fill="#00c2cb" d="M 208.777344 199.597656 L 223.753906 199.597656 L 223.753906 206.34375 L 208.777344 206.34375 Z M 208.777344 199.597656 " fill-opacity="1" fill-rule="nonzero"/><path fill="#00c2cb" d="M 208.777344 209.824219 L 223.753906 209.824219 L 223.753906 216.566406 L 208.777344 216.566406 Z M 208.777344 209.824219 " fill-opacity="1" fill-rule="nonzero"/><path fill="#00c2cb" d="M 208.777344 220.046875 L 223.753906 220.046875 L 223.753906 226.792969 L 208.777344 226.792969 Z M 208.777344 220.046875 " fill-opacity="1" fill-rule="nonzero"/><path fill="#00c2cb" d="M 208.777344 230.21875 L 223.753906 230.21875 L 223.753906 236.964844 L 208.777344 236.964844 Z M 208.777344 230.21875 " fill-opacity="1" fill-rule="nonzero"/><path fill="#00c2cb" d="M 208.777344 240.441406 L 223.753906 240.441406 L 223.753906 247.1875 L 208.777344 247.1875 Z M 208.777344 240.441406 " fill-opacity="1" fill-rule="nonzero"/><path fill="#00c2cb" d="M 227.796875 230.21875 L 242.769531 230.21875 L 242.769531 236.964844 L 227.796875 236.964844 Z M 227.796875 230.21875 " fill-opacity="1" fill-rule="nonzero"/><path fill="#00c2cb" d="M 227.796875 240.441406 L 242.769531 240.441406 L 242.769531 247.1875 L 227.796875 247.1875 Z M 227.796875 240.441406 " fill-opacity="1" fill-rule="nonzero"/><path fill="#00c2cb" d="M 246.765625 209.824219 L 261.738281 209.824219 L 261.738281 216.566406 L 246.765625 216.566406 Z M 246.765625 209.824219 " fill-opacity="1" fill-rule="nonzero"/><path fill="#00c2cb" d="M 246.765625 220.046875 L 261.738281 220.046875 L 261.738281 226.792969 L 246.765625 226.792969 Z M 246.765625 220.046875 " fill-opacity="1" fill-rule="nonzero"/><path fill="#00c2cb" d="M 246.765625 230.21875 L 261.738281 230.21875 L 261.738281 236.964844 L 246.765625 236.964844 Z M 246.765625 230.21875 " fill-opacity="1" fill-rule="nonzero"/><path fill="#00c2cb" d="M 246.765625 240.441406 L 261.738281 240.441406 L 261.738281 247.1875 L 246.765625 247.1875 Z M 246.765625 240.441406 " fill-opacity="1" fill-rule="nonzero"/><path fill="#00c2cb" d="M 265.785156 179.203125 L 280.757812 179.203125 L 280.757812 185.949219 L 265.785156 185.949219 Z M 265.785156 179.203125 " fill-opacity="1" fill-rule="nonzero"/><path fill="#00c2cb" d="M 265.785156 189.425781 L 280.757812 189.425781 L 280.757812 196.171875 L 265.785156 196.171875 Z M 265.785156 189.425781 " fill-opacity="1" fill-rule="nonzero"/><path fill="#00c2cb" d="M 265.785156 199.597656 L 280.757812 199.597656 L 280.757812 206.34375 L 265.785156 206.34375 Z M 265.785156 199.597656 " fill-opacity="1" fill-rule="nonzero"/><path fill="#00c2cb" d="M 265.785156 209.824219 L 280.757812 209.824219 L 280.757812 216.566406 L 265.785156 216.566406 Z M 265.785156 209.824219 " fill-opacity="1" fill-rule="nonzero"/><path fill="#00c2cb" d="M 265.785156 220.046875 L 280.757812 220.046875 L 280.757812 226.792969 L 265.785156 226.792969 Z M 265.785156 220.046875 " fill-opacity="1" fill-rule="nonzero"/><path fill="#00c2cb" d="M 265.785156 230.21875 L 280.757812 230.21875 L 280.757812 236.964844 L 265.785156 236.964844 Z M 265.785156 230.21875 " fill-opacity="1" fill-rule="nonzero"/><path fill="#00c2cb" d="M 265.785156 240.441406 L 280.757812 240.441406 L 280.757812 247.1875 L 265.785156 247.1875 Z M 265.785156 240.441406 " fill-opacity="1" fill-rule="nonzero"/><path fill="#00c2cb" d="M 284.804688 138.410156 L 299.777344 138.410156 L 299.777344 145.15625 L 284.804688 145.15625 Z M 284.804688 138.410156 " fill-opacity="1" fill-rule="nonzero"/><path fill="#00c2cb" d="M 284.804688 148.582031 L 299.777344 148.582031 L 299.777344 155.328125 L 284.804688 155.328125 Z M 284.804688 148.582031 " fill-opacity="1" fill-rule="nonzero"/><path fill="#00c2cb" d="M 284.804688 158.808594 L 299.777344 158.808594 L 299.777344 165.550781 L 284.804688 165.550781 Z M 284.804688 158.808594 " fill-opacity="1" fill-rule="nonzero"/><path fill="#00c2cb" d="M 284.804688 169.03125 L 299.777344 169.03125 L 299.777344 175.777344 L 284.804688 175.777344 Z M 284.804688 169.03125 " fill-opacity="1" fill-rule="nonzero"/><path fill="#00c2cb" d="M 284.804688 179.203125 L 299.777344 179.203125 L 299.777344 185.949219 L 284.804688 185.949219 Z M 284.804688 179.203125 " fill-opacity="1" fill-rule="nonzero"/><path fill="#00c2cb" d="M 284.804688 189.425781 L 299.777344 189.425781 L 299.777344 196.171875 L 284.804688 196.171875 Z M 284.804688 189.425781 " fill-opacity="1" fill-rule="nonzero"/><path fill="#00c2cb" d="M 284.804688 199.597656 L 299.777344 199.597656 L 299.777344 206.34375 L 284.804688 206.34375 Z M 284.804688 199.597656 " fill-opacity="1" fill-rule="nonzero"/><path fill="#00c2cb" d="M 284.804688 209.824219 L 299.777344 209.824219 L 299.777344 216.566406 L 284.804688 216.566406 Z M 284.804688 209.824219 " fill-opacity="1" fill-rule="nonzero"/><path fill="#00c2cb" d="M 284.804688 220.046875 L 299.777344 220.046875 L 299.777344 226.792969 L 284.804688 226.792969 Z M 284.804688 220.046875 " fill-opacity="1" fill-rule="nonzero"/><path fill="#00c2cb" d="M 284.804688 230.21875 L 299.777344 230.21875 L 299.777344 236.964844 L 284.804688 236.964844 Z M 284.804688 230.21875 " fill-opacity="1" fill-rule="nonzero"/><path fill="#00c2cb" d="M 284.804688 240.441406 L 299.777344 240.441406 L 299.777344 247.1875 L 284.804688 247.1875 Z M 284.804688 240.441406 " fill-opacity="1" fill-rule="nonzero"/><path fill="#00c2cb" d="M 303.820312 158.808594 L 318.796875 158.808594 L 318.796875 165.550781 L 303.820312 165.550781 Z M 303.820312 158.808594 " fill-opacity="1" fill-rule="nonzero"/><path fill="#00c2cb" d="M 303.820312 169.03125 L 318.796875 169.03125 L 318.796875 175.777344 L 303.820312 175.777344 Z M 303.820312 169.03125 " fill-opacity="1" fill-rule="nonzero"/><path fill="#00c2cb" d="M 303.820312 179.203125 L 318.796875 179.203125 L 318.796875 185.949219 L 303.820312 185.949219 Z M 303.820312 179.203125 " fill-opacity="1" fill-rule="nonzero"/><path fill="#00c2cb" d="M 303.820312 189.425781 L 318.796875 189.425781 L 318.796875 196.171875 L 303.820312 196.171875 Z M 303.820312 189.425781 " fill-opacity="1" fill-rule="nonzero"/><path fill="#00c2cb" d="M 303.820312 199.597656 L 318.796875 199.597656 L 318.796875 206.34375 L 303.820312 206.34375 Z M 303.820312 199.597656 " fill-opacity="1" fill-rule="nonzero"/><path fill="#00c2cb" d="M 303.820312 209.824219 L 318.796875 209.824219 L 318.796875 216.566406 L 303.820312 216.566406 Z M 303.820312 209.824219 " fill-opacity="1" fill-rule="nonzero"/><path fill="#00c2cb" d="M 303.820312 220.046875 L 318.796875 220.046875 L 318.796875 226.792969 L 303.820312 226.792969 Z M 303.820312 220.046875 " fill-opacity="1" fill-rule="nonzero"/><path fill="#00c2cb" d="M 303.820312 230.21875 L 318.796875 230.21875 L 318.796875 236.964844 L 303.820312 236.964844 Z M 303.820312 230.21875 " fill-opacity="1" fill-rule="nonzero"/><path fill="#00c2cb" d="M 303.820312 240.441406 L 318.796875 240.441406 L 318.796875 247.1875 L 303.820312 247.1875 Z M 303.820312 240.441406 " fill-opacity="1" fill-rule="nonzero"/><g clip-path="url(#5d7136a58e)"><path fill="#00c2cb" d="M 322.789062 220.046875 L 337.761719 220.046875 L 337.761719 226.792969 L 322.789062 226.792969 Z M 322.789062 220.046875 " fill-opacity="1" fill-rule="nonzero"/></g><g clip-path="url(#7831c52088)"><path fill="#00c2cb" d="M 322.789062 230.21875 L 337.761719 230.21875 L 337.761719 236.964844 L 322.789062 236.964844 Z M 322.789062 230.21875 " fill-opacity="1" fill-rule="nonzero"/></g><g clip-path="url(#ab4bc03513)"><path fill="#00c2cb" d="M 322.789062 240.441406 L 337.761719 240.441406 L 337.761719 247.1875 L 322.789062 247.1875 Z M 322.789062 240.441406 " fill-opacity="1" fill-rule="nonzero"/></g></svg>